<?xml version="1.0" encoding="UTF-8" standalone="no"?>
<!-- Created with Inkscape (http://www.inkscape.org/) -->

<svg
   xmlns:rendltx="http://NOTSET"
   xmlns:dc="http://purl.org/dc/elements/1.1/"
   xmlns:cc="http://creativecommons.org/ns#"
   xmlns:rdf="http://www.w3.org/1999/02/22-rdf-syntax-ns#"
   xmlns:svg="http://www.w3.org/2000/svg"
   xmlns="http://www.w3.org/2000/svg"
   xmlns:xlink="http://www.w3.org/1999/xlink"
   xmlns:sodipodi="http://sodipodi.sourceforge.net/DTD/sodipodi-0.dtd"
   xmlns:inkscape="http://www.inkscape.org/namespaces/inkscape"
   width="210mm"
   height="297mm"
   viewBox="0 0 210 297"
   version="1.1"
   id="svg8"
   inkscape:version="0.92.2 (5c3e80d, 2017-08-06)"
   sodipodi:docname="pcaProj.svg">
  <sodipodi:namedview
     id="base"
     pagecolor="#ffffff"
     bordercolor="#666666"
     borderopacity="1.0"
     inkscape:pageopacity="0.0"
     inkscape:pageshadow="2"
     inkscape:zoom="0.7"
     inkscape:cx="327.66202"
     inkscape:cy="960.66675"
     inkscape:document-units="mm"
     showgrid="false"
     inkscape:window-width="724"
     inkscape:window-height="403"
     inkscape:window-x="3186"
     inkscape:window-y="120"
     inkscape:window-maximized="0"
     inkscape:current-layer="ltx-render-layer" />
  <defs
     id="defs2">
    <marker
       inkscape:stockid="Arrow2Sstart"
       orient="auto"
       refY="0.0"
       refX="0.0"
       id="Arrow2Sstart"
       style="overflow:visible"
       inkscape:isstock="true">
      <path
         id="path966"
         style="fill-rule:evenodd;stroke-width:0.625;stroke-linejoin:round;stroke:#00cb00;stroke-opacity:1;fill:#00b300;fill-opacity:1"
         d="M 8.7185878,4.0337352 L -2.2072895,0.016013256 L 8.7185884,-4.0017078 C 6.9730900,-1.6296469 6.9831476,1.6157441 8.7185878,4.0337352 z "
         transform="scale(0.3) translate(-2.3,0)" />
    </marker>
    <marker
       inkscape:stockid="Arrow1Lstart"
       orient="auto"
       refY="0.0"
       refX="0.0"
       id="marker1393"
       style="overflow:visible"
       inkscape:isstock="true">
      <path
         id="path936"
         d="M 0.0,0.0 L 5.0,-5.0 L -12.5,0.0 L 5.0,5.0 L 0.0,0.0 z "
         style="fill-rule:evenodd;stroke:#00cb00;stroke-width:1pt;stroke-opacity:1;fill:#00b300;fill-opacity:1"
         transform="scale(0.8) translate(12.5,0)" />
    </marker>
    <marker
       inkscape:stockid="Arrow1Lstart"
       orient="auto"
       refY="0.0"
       refX="0.0"
       id="Arrow1Lstart"
       style="overflow:visible"
       inkscape:isstock="true">
      <path
         id="path4502"
         d="M 0.0,0.0 L 5.0,-5.0 L -12.5,0.0 L 5.0,5.0 L 0.0,0.0 z "
         style="fill-rule:evenodd;stroke:#000000;stroke-width:1pt;stroke-opacity:1;fill:#000000;fill-opacity:1"
         transform="scale(0.8) translate(12.5,0)" />
    </marker>
    <marker
       inkscape:stockid="Arrow1Lend"
       orient="auto"
       refY="0.0"
       refX="0.0"
       id="Arrow1Lend"
       style="overflow:visible;"
       inkscape:isstock="true">
      <path
         id="path4505"
         d="M 0.0,0.0 L 5.0,-5.0 L -12.5,0.0 L 5.0,5.0 L 0.0,0.0 z "
         style="fill-rule:evenodd;stroke:#000000;stroke-width:1pt;stroke-opacity:1;fill:#000000;fill-opacity:1"
         transform="scale(0.8) rotate(180) translate(12.5,0)" />
    </marker>
    <marker
       inkscape:stockid="Arrow1Lend"
       orient="auto"
       refY="0"
       refX="0"
       id="Arrow1Lend-3"
       style="overflow:visible"
       inkscape:isstock="true">
      <path
         inkscape:connector-curvature="0"
         id="path4505-9"
         d="M 0,0 5,-5 -12.5,0 5,5 Z"
         style="fill:#00cd00;fill-opacity:1;fill-rule:evenodd;stroke:#00cd00;stroke-width:1.00000003pt;stroke-opacity:1"
         transform="matrix(-0.8,0,0,-0.8,-10,0)" />
    </marker>
    <marker
       inkscape:stockid="Arrow1Lend"
       orient="auto"
       refY="0"
       refX="0"
       id="Arrow1Lend-3-5"
       style="overflow:visible"
       inkscape:isstock="true">
      <path
         inkscape:connector-curvature="0"
         id="path4505-9-5"
         d="M 0,0 5,-5 -12.5,0 5,5 Z"
         style="fill:#0000ff;fill-opacity:1;fill-rule:evenodd;stroke:#0000ff;stroke-width:1.00000003pt;stroke-opacity:1"
         transform="matrix(-0.8,0,0,-0.8,-10,0)" />
    </marker>
    <marker
       inkscape:stockid="Arrow2Sstart"
       orient="auto"
       refY="0"
       refX="0"
       id="Arrow2Sstart-3"
       style="overflow:visible"
       inkscape:isstock="true">
      <path
         inkscape:connector-curvature="0"
         id="path966-3"
         style="fill:#00b300;fill-opacity:1;fill-rule:evenodd;stroke:#00cb00;stroke-width:0.625;stroke-linejoin:round;stroke-opacity:1"
         d="M 8.7185878,4.0337352 -2.2072895,0.01601326 8.7185884,-4.0017078 c -1.7454984,2.3720609 -1.7354408,5.6174519 -6e-7,8.035443 z"
         transform="matrix(0.3,0,0,0.3,-0.69,0)" />
    </marker>
    <marker
       inkscape:stockid="Arrow2Sstart"
       orient="auto"
       refY="0"
       refX="0"
       id="Arrow2Sstart-4"
       style="overflow:visible"
       inkscape:isstock="true">
      <path
         inkscape:connector-curvature="0"
         id="path966-5"
         style="fill:#00b300;fill-opacity:1;fill-rule:evenodd;stroke:#00cb00;stroke-width:0.625;stroke-linejoin:round;stroke-opacity:1"
         d="M 8.7185878,4.0337352 -2.2072895,0.01601326 8.7185884,-4.0017078 c -1.7454984,2.3720609 -1.7354408,5.6174519 -6e-7,8.035443 z"
         transform="matrix(0.3,0,0,0.3,-0.69,0)" />
    </marker>
    <marker
       inkscape:stockid="Arrow2Sstart"
       orient="auto"
       refY="0"
       refX="0"
       id="Arrow2Sstart-4-2"
       style="overflow:visible"
       inkscape:isstock="true">
      <path
         inkscape:connector-curvature="0"
         id="path966-5-7"
         style="fill:#00b300;fill-opacity:1;fill-rule:evenodd;stroke:#00cb00;stroke-width:0.625;stroke-linejoin:round;stroke-opacity:1"
         d="M 8.7185878,4.0337352 -2.2072895,0.01601326 8.7185884,-4.0017078 c -1.7454984,2.3720609 -1.7354408,5.6174519 -6e-7,8.035443 z"
         transform="matrix(0.3,0,0,0.3,-0.69,0)" />
    </marker>
    <marker
       inkscape:stockid="Arrow2Sstart"
       orient="auto"
       refY="0"
       refX="0"
       id="Arrow2Sstart-4-7"
       style="overflow:visible"
       inkscape:isstock="true">
      <path
         inkscape:connector-curvature="0"
         id="path966-5-1"
         style="fill:#00b300;fill-opacity:1;fill-rule:evenodd;stroke:#00cb00;stroke-width:0.625;stroke-linejoin:round;stroke-opacity:1"
         d="M 8.7185878,4.0337352 -2.2072895,0.01601326 8.7185884,-4.0017078 c -1.7454984,2.3720609 -1.7354408,5.6174519 -6e-7,8.035443 z"
         transform="matrix(0.3,0,0,0.3,-0.69,0)" />
    </marker>
    <marker
       inkscape:stockid="Arrow2Sstart"
       orient="auto"
       refY="0"
       refX="0"
       id="Arrow2Sstart-4-25"
       style="overflow:visible"
       inkscape:isstock="true">
      <path
         inkscape:connector-curvature="0"
         id="path966-5-5"
         style="fill:#0000be;fill-opacity:1;fill-rule:evenodd;stroke:#0000c8;stroke-width:0.625;stroke-linejoin:round;stroke-opacity:1"
         d="M 8.7185878,4.0337352 -2.2072895,0.01601326 8.7185884,-4.0017078 c -1.7454984,2.3720609 -1.7354408,5.6174519 -6e-7,8.035443 z"
         transform="matrix(0.3,0,0,0.3,-0.69,0)" />
    </marker>
    <marker
       inkscape:stockid="Arrow2Sstart"
       orient="auto"
       refY="0"
       refX="0"
       id="Arrow2Sstart-4-25-8"
       style="overflow:visible"
       inkscape:isstock="true">
      <path
         inkscape:connector-curvature="0"
         id="path966-5-5-4"
         style="fill:#0000be;fill-opacity:1;fill-rule:evenodd;stroke:#0000c8;stroke-width:0.625;stroke-linejoin:round;stroke-opacity:1"
         d="M 8.7185878,4.0337352 -2.2072895,0.01601326 8.7185884,-4.0017078 c -1.7454984,2.3720609 -1.7354408,5.6174519 -6e-7,8.035443 z"
         transform="matrix(0.3,0,0,0.3,-0.69,0)" />
    </marker>
    <marker
       inkscape:stockid="Arrow2Sstart"
       orient="auto"
       refY="0"
       refX="0"
       id="Arrow2Sstart-4-25-4"
       style="overflow:visible"
       inkscape:isstock="true">
      <path
         inkscape:connector-curvature="0"
         id="path966-5-5-0"
         style="fill:#0000be;fill-opacity:1;fill-rule:evenodd;stroke:#0000c8;stroke-width:0.625;stroke-linejoin:round;stroke-opacity:1"
         d="M 8.7185878,4.0337352 -2.2072895,0.01601326 8.7185884,-4.0017078 c -1.7454984,2.3720609 -1.7354408,5.6174519 -6e-7,8.035443 z"
         transform="matrix(0.3,0,0,0.3,-0.69,0)" />
    </marker>
  </defs>
  <metadata
     id="metadata5">
    <rdf:RDF>
      <cc:Work
         rdf:about="">
        <dc:format>image/svg+xml</dc:format>
        <dc:type
           rdf:resource="http://purl.org/dc/dcmitype/StillImage" />
        <dc:title></dc:title>
      </cc:Work>
    </rdf:RDF>
  </metadata>
  <g
     inkscape:label="Layer 1"
     inkscape:groupmode="layer"
     id="layer1">
    <path
       style="fill:none;stroke:#000000;stroke-width:0.365;stroke-linecap:butt;stroke-linejoin:miter;stroke-opacity:1;marker-start:url(#Arrow1Lstart);stroke-miterlimit:4;stroke-dasharray:none"
       d="M 39.02135,27.057776 V 113.11856"
       id="path3680"
       inkscape:connector-curvature="0" />
    <path
       style="fill:none;stroke:#000000;stroke-width:0.365;stroke-linecap:butt;stroke-linejoin:miter;stroke-opacity:1;stroke-miterlimit:4;stroke-dasharray:none;marker-end:url(#Arrow1Lend)"
       d="M 25.657874,100.28963 H 151.80909"
       id="path3682"
       inkscape:connector-curvature="0" />
    <ellipse
       id="path3695"
       cx="84.244102"
       cy="62.8316"
       rx="2.0431116"
       ry="2.2158873"
       style="fill:none;stroke:#000000;stroke-width:0.20083368;stroke-opacity:1" />
    <ellipse
       id="path3695-8"
       cx="94.872017"
       cy="53.205357"
       rx="2.0431116"
       ry="2.2158875"
       style="fill:none;stroke:#000000;stroke-width:0.20083368;stroke-opacity:1" />
    <ellipse
       id="path3695-1"
       cx="94.683037"
       cy="63.221725"
       rx="2.0431116"
       ry="2.2158875"
       style="fill:none;stroke:#000000;stroke-width:0.20083368;stroke-opacity:1" />
    <ellipse
       id="path3695-7"
       cx="100.91965"
       cy="53.205353"
       rx="2.0431116"
       ry="2.2158875"
       style="fill:none;stroke:#000000;stroke-width:0.20083368;stroke-opacity:1" />
    <ellipse
       id="path3695-9"
       cx="91.470238"
       cy="58.875"
       rx="2.0431116"
       ry="2.2158875"
       style="fill:none;stroke:#000000;stroke-width:0.20083368;stroke-opacity:1" />
    <ellipse
       id="path3695-3"
       cx="96.572914"
       cy="60.953869"
       rx="2.0431116"
       ry="2.2158875"
       style="fill:none;stroke:#000000;stroke-width:0.20083368;stroke-opacity:1" />
    <ellipse
       id="path3695-0"
       cx="88.068451"
       cy="68.324402"
       rx="2.0431116"
       ry="2.2158875"
       style="fill:none;stroke:#000000;stroke-width:0.20083368;stroke-opacity:1" />
    <ellipse
       id="path3695-97"
       cx="98.840775"
       cy="70.403267"
       rx="2.0431116"
       ry="2.2158875"
       style="fill:none;stroke:#000000;stroke-width:0.20083368;stroke-opacity:1" />
    <ellipse
       id="path3695-84"
       cx="106.02231"
       cy="62.087795"
       rx="2.0431116"
       ry="2.2158875"
       style="fill:none;stroke:#000000;stroke-width:0.20083368;stroke-opacity:1" />
    <ellipse
       id="path3695-11"
       cx="109.80209"
       cy="51.126488"
       rx="2.0431116"
       ry="2.2158875"
       style="fill:none;stroke:#000000;stroke-width:0.20083368;stroke-opacity:1" />
    <ellipse
       id="path3695-76"
       cx="81.075897"
       cy="74.372025"
       rx="2.0431116"
       ry="2.2158875"
       style="fill:none;stroke:#000000;stroke-width:0.20083368;stroke-opacity:1" />
    <ellipse
       id="path3695-31"
       cx="113.3456"
       cy="44.181175"
       rx="2.0431116"
       ry="2.2158875"
       style="fill:none;stroke:#000000;stroke-width:0.20083368;stroke-opacity:1" />
    <path
       style="fill:none;stroke:#00cd00;stroke-width:0.33410311;stroke-linecap:butt;stroke-linejoin:miter;stroke-miterlimit:4;stroke-dasharray:none;stroke-opacity:1;marker-end:url(#Arrow1Lend-3)"
       d="M 74.180861,82.02301 126.92916,29.274708"
       id="path3682-0"
       inkscape:connector-curvature="0" />
    <path
       style="fill:none;stroke:#0000ff;stroke-width:0.33410311;stroke-linecap:butt;stroke-linejoin:miter;stroke-miterlimit:4;stroke-dasharray:none;stroke-opacity:1;marker-end:url(#Arrow1Lend-3-5)"
       d="M 121.79441,81.828634 69.046109,29.080334"
       id="path3682-0-7"
       inkscape:connector-curvature="0" />
  </g>
  <g
     inkscape:groupmode="layer"
     id="layer2"
     inkscape:label="Latex"
     style="display:none">
    <text
       xml:space="preserve"
       style="font-style:normal;font-weight:normal;font-size:10.58333302px;line-height:6.61458302px;font-family:sans-serif;letter-spacing:0px;word-spacing:0px;fill:#000000;fill-opacity:1;stroke:none;stroke-width:0.26458332"
       x="156.0854"
       y="102.96233"
       id="text4551"><tspan
         sodipodi:role="line"
         x="156.0854"
         y="102.96233"
         style="stroke-width:0.26458332"
         id="tspan4553">$x_1$</tspan></text>
    <text
       xml:space="preserve"
       style="font-style:normal;font-weight:normal;font-size:10.58333302px;line-height:6.61458349px;font-family:sans-serif;letter-spacing:0px;word-spacing:0px;fill:#000000;fill-opacity:1;stroke:none;stroke-width:0.26458332"
       x="4.6970005"
       y="32.770184"
       id="text4551-4"><tspan
         sodipodi:role="line"
         x="4.6970005"
         y="32.770184"
         style="stroke-width:0.26458332"
         id="tspan4553-2">$x_2$</tspan></text>
    <text
       xml:space="preserve"
       style="font-style:normal;font-weight:normal;font-size:10.58333302px;line-height:6.61458349px;font-family:sans-serif;letter-spacing:0px;word-spacing:0px;fill:#000000;fill-opacity:1;stroke:none;stroke-width:0.26458332"
       x="124.63576"
       y="44.400501"
       id="text4551-4-7"><tspan
         sodipodi:role="line"
         x="124.63576"
         y="44.400501"
         style="stroke-width:0.26458332"
         id="tspan4593">$y_1$</tspan></text>
    <text
       xml:space="preserve"
       style="font-style:normal;font-weight:normal;font-size:10.58333302px;line-height:6.61458349px;font-family:sans-serif;letter-spacing:0px;word-spacing:0px;fill:#000000;fill-opacity:1;stroke:none;stroke-width:0.26458332"
       x="75.256165"
       y="31.166565"
       id="text4551-4-7-8"><tspan
         sodipodi:role="line"
         x="75.256165"
         y="31.166565"
         style="stroke-width:0.26458332"
         id="tspan4593-0">$y_2$</tspan></text>
  </g>
  <g
     id="ltx-render-layer"
     inkscape:groupmode="layer"
     inkscape:label="Rendered Latex"
     rendltx:preamble=""
     rendltx:scale="3.0"
     rendltx:depth="0.0"
     rendltx:fontsize="10.0"
     rendltx:newline="False"
     rendltx:math="False">
    <g
       id="lx-text4551"
       transform="matrix(0.352778,0,0,0.352778,156.0854,104.03141)">
      <defs
         id="defs5583">
        <g
           id="g5581">
          <symbol
             id="lx-text4551-glyph0-0"
             overflow="visible"
             style="overflow:visible">
            <path
               id="path5569"
               d=""
               style="stroke:none"
               inkscape:connector-curvature="0" />
          </symbol>
          <symbol
             id="lx-text4551-glyph0-1"
             overflow="visible"
             style="overflow:visible">
            <path
               id="path5572"
               d="m 9.984375,-9.03125 c 0.171875,-0.765625 0.859375,-3.515625 2.953125,-3.515625 0.15625,0 0.875,0 1.5,0.375 -0.84375,0.15625 -1.4375,0.90625 -1.4375,1.625 0,0.46875 0.328125,1.046875 1.140625,1.046875 0.65625,0 1.609375,-0.546875 1.609375,-1.734375 0,-1.5625 -1.765625,-1.984375 -2.78125,-1.984375 -1.734375,0 -2.78125,1.59375 -3.140625,2.28125 -0.734375,-1.96875 -2.359375,-2.28125 -3.21875,-2.28125 -3.109375,0 -4.8125,3.859375 -4.8125,4.609375 0,0.296875 0.296875,0.296875 0.359375,0.296875 0.234375,0 0.328125,-0.0625 0.390625,-0.328125 1.015625,-3.171875 2.984375,-3.90625 4,-3.90625 0.5625,0 1.609375,0.265625 1.609375,2 0,0.921875 -0.5,2.921875 -1.609375,7.109375 -0.484375,1.859375 -1.53125,3.109375 -2.84375,3.109375 -0.171875,0 -0.859375,0 -1.484375,-0.390625 0.734375,-0.140625 1.390625,-0.78125 1.390625,-1.609375 0,-0.8125 -0.65625,-1.046875 -1.09375,-1.046875 -0.90625,0 -1.65625,0.78125 -1.65625,1.734375 0,1.375 1.5,1.96875 2.8125,1.96875 1.984375,0 3.046875,-2.09375 3.140625,-2.265625 0.359375,1.09375 1.4375,2.265625 3.234375,2.265625 3.078125,0 4.78125,-3.859375 4.78125,-4.609375 0,-0.296875 -0.265625,-0.296875 -0.359375,-0.296875 -0.265625,0 -0.328125,0.125 -0.390625,0.328125 -0.984375,3.203125 -3.015625,3.921875 -3.96875,3.921875 -1.171875,0 -1.65625,-0.953125 -1.65625,-1.96875 0,-0.65625 0.1875,-1.3125 0.515625,-2.640625 z m 0,0"
               style="stroke:none"
               inkscape:connector-curvature="0" />
          </symbol>
          <symbol
             id="lx-text4551-glyph1-0"
             overflow="visible"
             style="overflow:visible">
            <path
               id="path5575"
               d=""
               style="stroke:none"
               inkscape:connector-curvature="0" />
          </symbol>
          <symbol
             id="lx-text4551-glyph1-1"
             overflow="visible"
             style="overflow:visible">
            <path
               id="path5578"
               d="m 7.015625,-13.3125 c 0,-0.5625 -0.046875,-0.578125 -0.640625,-0.578125 -1.328125,1.3125 -3.234375,1.34375 -4.09375,1.34375 v 0.75 c 0.5,0 1.875,0 3.03125,-0.59375 V -1.71875 c 0,0.6875 0,0.96875 -2.09375,0.96875 H 2.421875 V 0 c 0.375,-0.015625 2.953125,-0.078125 3.734375,-0.078125 0.640625,0 3.28125,0.0625 3.734375,0.078125 V -0.75 H 9.09375 c -2.078125,0 -2.078125,-0.28125 -2.078125,-0.96875 z m 0,0"
               style="stroke:none"
               inkscape:connector-curvature="0" />
          </symbol>
        </g>
      </defs>
      <g
         id="lx-text4551-surface1">
        <g
           id="g5587"
           style="fill:#000000;fill-opacity:1">
          <use
             id="use5585"
             y="0"
             x="0"
             xlink:href="#lx-text4551-glyph0-1"
             width="100%"
             height="100%" />
        </g>
        <g
           id="g5591"
           style="fill:#000000;fill-opacity:1">
          <use
             id="use5589"
             y="4.4850001"
             x="17.082001"
             xlink:href="#lx-text4551-glyph1-1"
             width="100%"
             height="100%" />
        </g>
      </g>
    </g>
    <g
       id="lx-text4551-4"
       transform="matrix(0.352778,0,0,0.352778,23.940406,33.304723)">
      <defs
         id="defs5609">
        <g
           id="g5607">
          <symbol
             id="lx-text4551-4-glyph0-0"
             overflow="visible"
             style="overflow:visible">
            <path
               id="path5595"
               d=""
               style="stroke:none"
               inkscape:connector-curvature="0" />
          </symbol>
          <symbol
             id="lx-text4551-4-glyph0-1"
             overflow="visible"
             style="overflow:visible">
            <path
               id="path5598"
               d="m 9.984375,-9.03125 c 0.171875,-0.765625 0.859375,-3.515625 2.953125,-3.515625 0.15625,0 0.875,0 1.5,0.375 -0.84375,0.15625 -1.4375,0.90625 -1.4375,1.625 0,0.46875 0.328125,1.046875 1.140625,1.046875 0.65625,0 1.609375,-0.546875 1.609375,-1.734375 0,-1.5625 -1.765625,-1.984375 -2.78125,-1.984375 -1.734375,0 -2.78125,1.59375 -3.140625,2.28125 -0.734375,-1.96875 -2.359375,-2.28125 -3.21875,-2.28125 -3.109375,0 -4.8125,3.859375 -4.8125,4.609375 0,0.296875 0.296875,0.296875 0.359375,0.296875 0.234375,0 0.328125,-0.0625 0.390625,-0.328125 1.015625,-3.171875 2.984375,-3.90625 4,-3.90625 0.5625,0 1.609375,0.265625 1.609375,2 0,0.921875 -0.5,2.921875 -1.609375,7.109375 -0.484375,1.859375 -1.53125,3.109375 -2.84375,3.109375 -0.171875,0 -0.859375,0 -1.484375,-0.390625 0.734375,-0.140625 1.390625,-0.78125 1.390625,-1.609375 0,-0.8125 -0.65625,-1.046875 -1.09375,-1.046875 -0.90625,0 -1.65625,0.78125 -1.65625,1.734375 0,1.375 1.5,1.96875 2.8125,1.96875 1.984375,0 3.046875,-2.09375 3.140625,-2.265625 0.359375,1.09375 1.4375,2.265625 3.234375,2.265625 3.078125,0 4.78125,-3.859375 4.78125,-4.609375 0,-0.296875 -0.265625,-0.296875 -0.359375,-0.296875 -0.265625,0 -0.328125,0.125 -0.390625,0.328125 -0.984375,3.203125 -3.015625,3.921875 -3.96875,3.921875 -1.171875,0 -1.65625,-0.953125 -1.65625,-1.96875 0,-0.65625 0.1875,-1.3125 0.515625,-2.640625 z m 0,0"
               style="stroke:none"
               inkscape:connector-curvature="0" />
          </symbol>
          <symbol
             id="lx-text4551-4-glyph1-0"
             overflow="visible"
             style="overflow:visible">
            <path
               id="path5601"
               d=""
               style="stroke:none"
               inkscape:connector-curvature="0" />
          </symbol>
          <symbol
             id="lx-text4551-4-glyph1-1"
             overflow="visible"
             style="overflow:visible">
            <path
               id="path5604"
               d="M 10.5625,-3.8125 H 9.859375 c -0.0625,0.46875 -0.28125,1.703125 -0.546875,1.90625 -0.171875,0.125 -1.78125,0.125 -2.078125,0.125 H 3.390625 C 5.59375,-3.71875 6.3125,-4.3125 7.578125,-5.296875 9.125,-6.53125 10.5625,-7.828125 10.5625,-9.8125 c 0,-2.53125 -2.21875,-4.078125 -4.890625,-4.078125 -2.59375,0 -4.359375,1.8125 -4.359375,3.75 0,1.0625 0.90625,1.171875 1.109375,1.171875 0.5,0 1.109375,-0.359375 1.109375,-1.109375 0,-0.390625 -0.140625,-1.109375 -1.234375,-1.109375 0.65625,-1.484375 2.078125,-1.953125 3.0625,-1.953125 2.09375,0 3.171875,1.640625 3.171875,3.328125 0,1.828125 -1.296875,3.265625 -1.96875,4.015625 L 1.53125,-0.8125 C 1.3125,-0.625 1.3125,-0.578125 1.3125,0 h 8.625 z m 0,0"
               style="stroke:none"
               inkscape:connector-curvature="0" />
          </symbol>
        </g>
      </defs>
      <g
         id="lx-text4551-4-surface1">
        <g
           id="g5613"
           style="fill:#000000;fill-opacity:1">
          <use
             id="use5611"
             y="0"
             x="0"
             xlink:href="#lx-text4551-4-glyph0-1"
             width="100%"
             height="100%" />
        </g>
        <g
           id="g5617"
           style="fill:#000000;fill-opacity:1">
          <use
             id="use5615"
             y="4.4850001"
             x="17.082001"
             xlink:href="#lx-text4551-4-glyph1-1"
             width="100%"
             height="100%" />
        </g>
      </g>
    </g>
    <g
       id="lx-text4551-4-7"
       transform="matrix(0.352778,0,0,0.352778,125.1703,41.460536)"
       style="fill:#00cb00;fill-opacity:1">
      <defs
         id="defs5635">
        <g
           id="g5633">
          <symbol
             id="lx-text4551-4-7-glyph0-0"
             overflow="visible"
             style="overflow:visible">
            <path
               id="path5621"
               d=""
               style="stroke:none"
               inkscape:connector-curvature="0" />
          </symbol>
          <symbol
             id="lx-text4551-4-7-glyph0-1"
             overflow="visible"
             style="overflow:visible">
            <path
               id="path5624"
               d="m 14.53125,-11.390625 c 0.109375,-0.421875 0.109375,-0.46875 0.109375,-0.6875 0,-0.53125 -0.40625,-0.8125 -0.859375,-0.8125 -0.296875,0 -0.78125,0.1875 -1.046875,0.640625 -0.0625,0.140625 -0.296875,1.078125 -0.421875,1.609375 C 12.109375,-9.859375 11.890625,-9.0625 11.71875,-8.25 L 10.375,-2.875 C 10.25,-2.421875 8.96875,-0.328125 7,-0.328125 c -1.53125,0 -1.859375,-1.3125 -1.859375,-2.421875 0,-1.375 0.515625,-3.234375 1.53125,-5.859375 0.46875,-1.21875 0.59375,-1.546875 0.59375,-2.15625 0,-1.34375 -0.953125,-2.453125 -2.453125,-2.453125 -2.84375,0 -3.953125,4.34375 -3.953125,4.609375 0,0.296875 0.3125,0.296875 0.359375,0.296875 0.3125,0 0.328125,-0.0625 0.484375,-0.53125 0.8125,-2.8125 2,-3.703125 3.015625,-3.703125 0.25,0 0.75,0 0.75,0.953125 0,0.75 -0.296875,1.515625 -0.5,2.09375 -1.203125,3.15625 -1.734375,4.859375 -1.734375,6.265625 0,2.671875 1.875,3.5625 3.640625,3.5625 1.171875,0 2.1875,-0.5 3.015625,-1.34375 C 9.5,0.53125 9.140625,2 7.953125,3.59375 c -0.78125,1.015625 -1.921875,1.875 -3.296875,1.875 -0.40625,0 -1.75,-0.09375 -2.265625,-1.25 0.484375,0 0.875,0 1.28125,-0.359375 C 3.96875,3.59375 4.28125,3.203125 4.28125,2.625 4.28125,1.703125 3.46875,1.578125 3.171875,1.578125 2.484375,1.578125 1.5,2.0625 1.5,3.53125 1.5,5.015625 2.8125,6.125 4.65625,6.125 c 3.078125,0 6.171875,-2.71875 7,-6.09375 z m 0,0"
               style="stroke:none"
               inkscape:connector-curvature="0" />
          </symbol>
          <symbol
             id="lx-text4551-4-7-glyph1-0"
             overflow="visible"
             style="overflow:visible">
            <path
               id="path5627"
               d=""
               style="stroke:none"
               inkscape:connector-curvature="0" />
          </symbol>
          <symbol
             id="lx-text4551-4-7-glyph1-1"
             overflow="visible"
             style="overflow:visible">
            <path
               id="path5630"
               d="m 7.015625,-13.3125 c 0,-0.5625 -0.046875,-0.578125 -0.640625,-0.578125 -1.328125,1.3125 -3.234375,1.34375 -4.09375,1.34375 v 0.75 c 0.5,0 1.875,0 3.03125,-0.59375 V -1.71875 c 0,0.6875 0,0.96875 -2.09375,0.96875 H 2.421875 V 0 c 0.375,-0.015625 2.953125,-0.078125 3.734375,-0.078125 0.640625,0 3.28125,0.0625 3.734375,0.078125 V -0.75 H 9.09375 c -2.078125,0 -2.078125,-0.28125 -2.078125,-0.96875 z m 0,0"
               style="stroke:none"
               inkscape:connector-curvature="0" />
          </symbol>
        </g>
      </defs>
      <g
         id="lx-text4551-4-7-surface1"
         style="fill:#00cb00;fill-opacity:1">
        <g
           id="g5639"
           style="fill:#00cb00;fill-opacity:1">
          <use
             id="use5637"
             y="0"
             x="0"
             xlink:href="#lx-text4551-4-7-glyph0-1"
             style="fill:#00cb00;fill-opacity:1"
             width="100%"
             height="100%" />
        </g>
        <g
           id="g5643"
           style="fill:#00cb00;fill-opacity:1">
          <use
             id="use5641"
             y="4.4850001"
             x="14.655"
             xlink:href="#lx-text4551-4-7-glyph1-1"
             style="fill:#00cb00;fill-opacity:1"
             width="100%"
             height="100%" />
        </g>
      </g>
    </g>
    <g
       id="lx-text4551-4-7-8"
       transform="matrix(0.352778,0,0,0.352778,77.394321,31.701104)"
       style="fill:#0000ff;fill-opacity:1">
      <defs
         id="defs5661">
        <g
           id="g5659">
          <symbol
             id="lx-text4551-4-7-8-glyph0-0"
             overflow="visible"
             style="overflow:visible">
            <path
               id="path5647"
               d=""
               style="stroke:none"
               inkscape:connector-curvature="0" />
          </symbol>
          <symbol
             id="lx-text4551-4-7-8-glyph0-1"
             overflow="visible"
             style="overflow:visible">
            <path
               id="path5650"
               d="m 14.53125,-11.390625 c 0.109375,-0.421875 0.109375,-0.46875 0.109375,-0.6875 0,-0.53125 -0.40625,-0.8125 -0.859375,-0.8125 -0.296875,0 -0.78125,0.1875 -1.046875,0.640625 -0.0625,0.140625 -0.296875,1.078125 -0.421875,1.609375 C 12.109375,-9.859375 11.890625,-9.0625 11.71875,-8.25 L 10.375,-2.875 C 10.25,-2.421875 8.96875,-0.328125 7,-0.328125 c -1.53125,0 -1.859375,-1.3125 -1.859375,-2.421875 0,-1.375 0.515625,-3.234375 1.53125,-5.859375 0.46875,-1.21875 0.59375,-1.546875 0.59375,-2.15625 0,-1.34375 -0.953125,-2.453125 -2.453125,-2.453125 -2.84375,0 -3.953125,4.34375 -3.953125,4.609375 0,0.296875 0.3125,0.296875 0.359375,0.296875 0.3125,0 0.328125,-0.0625 0.484375,-0.53125 0.8125,-2.8125 2,-3.703125 3.015625,-3.703125 0.25,0 0.75,0 0.75,0.953125 0,0.75 -0.296875,1.515625 -0.5,2.09375 -1.203125,3.15625 -1.734375,4.859375 -1.734375,6.265625 0,2.671875 1.875,3.5625 3.640625,3.5625 1.171875,0 2.1875,-0.5 3.015625,-1.34375 C 9.5,0.53125 9.140625,2 7.953125,3.59375 c -0.78125,1.015625 -1.921875,1.875 -3.296875,1.875 -0.40625,0 -1.75,-0.09375 -2.265625,-1.25 0.484375,0 0.875,0 1.28125,-0.359375 C 3.96875,3.59375 4.28125,3.203125 4.28125,2.625 4.28125,1.703125 3.46875,1.578125 3.171875,1.578125 2.484375,1.578125 1.5,2.0625 1.5,3.53125 1.5,5.015625 2.8125,6.125 4.65625,6.125 c 3.078125,0 6.171875,-2.71875 7,-6.09375 z m 0,0"
               style="stroke:none"
               inkscape:connector-curvature="0" />
          </symbol>
          <symbol
             id="lx-text4551-4-7-8-glyph1-0"
             overflow="visible"
             style="overflow:visible">
            <path
               id="path5653"
               d=""
               style="stroke:none"
               inkscape:connector-curvature="0" />
          </symbol>
          <symbol
             id="lx-text4551-4-7-8-glyph1-1"
             overflow="visible"
             style="overflow:visible">
            <path
               id="path5656"
               d="M 10.5625,-3.8125 H 9.859375 c -0.0625,0.46875 -0.28125,1.703125 -0.546875,1.90625 -0.171875,0.125 -1.78125,0.125 -2.078125,0.125 H 3.390625 C 5.59375,-3.71875 6.3125,-4.3125 7.578125,-5.296875 9.125,-6.53125 10.5625,-7.828125 10.5625,-9.8125 c 0,-2.53125 -2.21875,-4.078125 -4.890625,-4.078125 -2.59375,0 -4.359375,1.8125 -4.359375,3.75 0,1.0625 0.90625,1.171875 1.109375,1.171875 0.5,0 1.109375,-0.359375 1.109375,-1.109375 0,-0.390625 -0.140625,-1.109375 -1.234375,-1.109375 0.65625,-1.484375 2.078125,-1.953125 3.0625,-1.953125 2.09375,0 3.171875,1.640625 3.171875,3.328125 0,1.828125 -1.296875,3.265625 -1.96875,4.015625 L 1.53125,-0.8125 C 1.3125,-0.625 1.3125,-0.578125 1.3125,0 h 8.625 z m 0,0"
               style="stroke:none"
               inkscape:connector-curvature="0" />
          </symbol>
        </g>
      </defs>
      <g
         id="lx-text4551-4-7-8-surface1"
         style="fill:#0000ff;fill-opacity:1">
        <g
           id="g5665"
           style="fill:#0000ff;fill-opacity:1">
          <use
             id="use5663"
             y="0"
             x="0"
             xlink:href="#lx-text4551-4-7-8-glyph0-1"
             style="fill:#0000ff;fill-opacity:1"
             width="100%"
             height="100%" />
        </g>
        <g
           id="g5669"
           style="fill:#0000ff;fill-opacity:1">
          <use
             id="use5667"
             y="4.4850001"
             x="14.655"
             xlink:href="#lx-text4551-4-7-8-glyph1-1"
             style="fill:#0000ff;fill-opacity:1"
             width="100%"
             height="100%" />
        </g>
      </g>
    </g>
    <path
       style="fill:#00b300;fill-opacity:1;stroke:#00cb00;stroke-width:0.26458332;stroke-linecap:butt;stroke-linejoin:miter;stroke-miterlimit:4;stroke-dasharray:none;stroke-opacity:1;marker-start:url(#Arrow2Sstart)"
       d="m 107.78129,49.014784 2.22073,2.315015"
       id="path934"
       inkscape:connector-curvature="0" />
    <path
       style="fill:#00b300;fill-opacity:1;stroke:#00cb00;stroke-width:0.26458332;stroke-linecap:butt;stroke-linejoin:miter;stroke-miterlimit:4;stroke-dasharray:none;stroke-opacity:1;marker-start:url(#Arrow2Sstart-4)"
       d="m 100.18852,56.766258 6.12012,5.837128"
       id="path934-5"
       inkscape:connector-curvature="0" />
    <path
       style="fill:#00b300;fill-opacity:1;stroke:#00cb00;stroke-width:0.26458332;stroke-linecap:butt;stroke-linejoin:miter;stroke-miterlimit:4;stroke-dasharray:none;stroke-opacity:1;marker-start:url(#Arrow2Sstart-4-2)"
       d="m 92.198191,64.5512 6.497806,6.026266"
       id="path934-5-9"
       inkscape:connector-curvature="0" />
    <path
       style="fill:#0000be;fill-opacity:1;stroke:#0000c8;stroke-width:0.26458332;stroke-linecap:butt;stroke-linejoin:miter;stroke-miterlimit:4;stroke-dasharray:none;stroke-opacity:1;marker-start:url(#Arrow2Sstart-4-25)"
       d="m 104.37276,64.625136 -5.628857,5.902208"
       id="path934-5-1"
       inkscape:connector-curvature="0" />
    <path
       style="fill:#0000be;fill-opacity:1;stroke:#0000c8;stroke-width:0.26458332;stroke-linecap:butt;stroke-linejoin:miter;stroke-miterlimit:4;stroke-dasharray:none;stroke-opacity:1;marker-start:url(#Arrow2Sstart-4-25-8)"
       d="m 104.37276,64.625136 1.93588,-2.02175"
       id="path934-5-1-2"
       inkscape:connector-curvature="0" />
    <path
       style="fill:#0000be;fill-opacity:1;stroke:#0000c8;stroke-width:0.26458332;stroke-linecap:butt;stroke-linejoin:miter;stroke-miterlimit:4;stroke-dasharray:none;stroke-opacity:1;marker-start:url(#Arrow2Sstart-4-25-4)"
       d="m 101.3841,60.346636 8.84431,-9.263819"
       id="path934-5-1-7"
       inkscape:connector-curvature="0" />
  </g>
</svg>
