<?xml version="1.0" encoding="utf-8"?>
<!-- Generator: Adobe Illustrator 27.0.0, SVG Export Plug-In . SVG Version: 6.00 Build 0)  -->
<svg version="1.1" id="Layer_1" xmlns="http://www.w3.org/2000/svg" xmlns:xlink="http://www.w3.org/1999/xlink" x="0px" y="0px"
	 viewBox="0 0 512 512" style="enable-background:new 0 0 512 512;" xml:space="preserve">
<style type="text/css">
	.st0{fill:#DD4814;}
	.st1{fill:#FFFFFF;}
</style>
<g id="XMLID_1_">
	<circle id="XMLID_3_" class="st0" cx="256" cy="256" r="256"/>
	<circle id="XMLID_4_" class="st1" cx="81.92" cy="256" r="34.23"/>
	<path id="XMLID_5_" class="st1" d="M173.66,379.58c-29.88-19.92-52.18-50.5-61.44-86.27c10.8-8.84,17.67-22.16,17.67-37.17
		s-6.87-28.48-17.67-37.17c9.26-35.77,31.56-66.35,61.44-86.27l24.97,41.8c-25.67,18.1-42.5,47.83-42.5,81.64
		s16.83,63.68,42.5,81.64L173.66,379.58z"/>
	<circle id="XMLID_6_" class="st1" cx="342.97" cy="105.21" r="34.23"/>
	<path id="XMLID_7_" class="st1" d="M190.21,122.88c32.26-15.85,69.86-19.92,105.49-9.96c2.24,13.75,10.38,26.37,23.43,33.95
		c13.05,7.57,28.05,8.28,41.1,3.23c26.37,25.95,41.66,60.46,44.05,96.37l-48.68,0.7c-2.81-31.28-20.2-60.74-49.52-77.57
		c-29.32-16.83-63.54-17.25-92.02-4.07L190.21,122.88z"/>
	<circle id="XMLID_8_" class="st1" cx="342.97" cy="406.79" r="34.23"/>
	<path id="XMLID_9_" class="st1" d="M404.13,265.54c-2.38,35.91-17.67,70.42-44.05,96.37c-13.05-4.91-28.05-4.21-41.1,3.23
		c-13.05,7.57-21.18,20.2-23.43,33.95c-35.63,9.82-73.22,5.89-105.49-9.96l23.71-42.5c28.48,13.19,62.7,12.76,92.02-4.07
		c29.32-16.83,46.71-46.29,49.52-77.57L404.13,265.54z"/>
</g>
</svg>
